<svg xmlns="http://www.w3.org/2000/svg" width="512" height="512" viewBox="0 0 512 512" role="img" aria-label="SalaryStory">
  <defs>
    <linearGradient id="g" x1="0" y1="0" x2="1" y2="1">
      <stop offset="0" stop-color="#007aff"/>
      <stop offset="1" stop-color="#34c759"/>
    </linearGradient>
  </defs>
  <rect x="48" y="48" width="416" height="416" rx="96" fill="url(#g)"/>
  <circle cx="256" cy="256" r="132" fill="rgba(255,255,255,0.18)"/>
  <path d="M220 170h72c42 0 78 28 78 72 0 44-36 72-78 72h-24v40c0 10-8 18-18 18s-18-8-18-18v-40h-12c-10 0-18-8-18-18s8-18 18-18h54c26 0 42-14 42-36s-16-36-42-36h-72c-10 0-18-8-18-18s8-18 18-18z" fill="#ffffff"/>
</svg>
